{"accessors":[{"bufferView":0,"byteOffset":0,"componentType":5126,"count":117610,"max":[12006.0380859375,2030.0,2000.3399658203125],"min":[-2006.035400390625,-14030.0,-25.711074829101563],"type":"VEC3"},{"bufferView":1,"byteOffset":0,"componentType":5126,"count":117610,"normalized":false,"type":"VEC2"},{"bufferView":2,"byteOffset":0,"componentType":5125,"count":141132,"type":"SCALAR"},{"bufferView":4,"byteOffset":0,"componentType":5126,"count":5975,"max":[12000.0,2000.0,5.1030378341674805],"min":[-2000.0,-14000.0,-0.6074615120887756],"type":"VEC3"},{"bufferView":5,"byteOffset":0,"componentType":5126,"count":5975,"normalized":false,"type":"VEC2"},{"bufferView":6,"byteOffset":0,"componentType":5125,"count":28800,"type":"SCALAR"}],"asset":{"generator":"VTK","version":"2.0"},"bufferViews":[{"buffer":0,"byteLength":1411320,"byteOffset":0,"target":34962},{"buffer":1,"byteLength":940880,"byteOffset":0,"target":34962},{"buffer":2,"byteLength":564528,"byteOffset":0,"target":34963},{"buffer":3,"byteLength":321,"byteOffset":0,"target":34962},{"buffer":4,"byteLength":71700,"byteOffset":0,"target":34962},{"buffer":5,"byteLength":47800,"byteOffset":0,"target":34962},{"buffer":6,"byteLength":115200,"byteOffset":0,"target":34963},{"buffer":7,"byteLength":9076,"byteOffset":0,"target":34962}],"buffers":[{"byteLength":1411320,"uri":"buffer5811821.bin"},{"byteLength":940880,"uri":"buffer6232044.bin"},{"byteLength":564528,"uri":"buffer6360400.bin"},{"byteLength":321,"uri":"buffer6361004.bin"},{"byteLength":71700,"uri":"buffer3080121.bin"},{"byteLength":47800,"uri":"buffer6191768.bin"},{"byteLength":115200,"uri":"buffer6369965.bin"},{"byteLength":9076,"uri":"buffer6370598.bin"}],"cameras":[{"orthographic":{"xmag":14490.392351387743,"ymag":6042.552276084768,"zfar":22527.446581484277,"znear":22.527446581484277},"type":"orthographic"}],"images":[{"bufferView":3,"mimeType":"image/png"},{"bufferView":7,"mimeType":"image/png"}],"materials":[{"pbrMetallicRoughness":{"baseColorFactor":[1.0,1.0,1.0,1.0],"baseColorTexture":{"index":0,"texCoord":0},"metallicFactor":0.0,"roughnessFactor":1.0}},{"pbrMetallicRoughness":{"baseColorFactor":[1.0,1.0,1.0,1.0],"baseColorTexture":{"index":1,"texCoord":0},"metallicFactor":0.0,"roughnessFactor":1.0}}],"meshes":[{"name":"mesh0","primitives":[{"attributes":{"POSITION":0,"TEXCOORD_0":1},"indices":2,"material":0,"mode":1}]},{"name":"mesh1","primitives":[{"attributes":{"POSITION":3,"TEXCOORD_0":4},"indices":5,"material":1,"mode":4}]}],"nodes":[{"mesh":0,"name":"mesh0"},{"mesh":1,"name":"mesh1"},{"camera":0,"matrix":[-0.300406046778107,0.9523626817759189,0.05255025613381716,-0.0,-0.5581162081589226,-0.22019175217379836,0.8000136814235986,0.0,0.7734743080732911,0.21099979771367702,0.597675982548514,-0.0,9807.81266158466,-5699.473179217449,3160.359946611273,1.0],"name":"Camera Node"},{"children":[0,1,2],"name":"Renderer Node"}],"samplers":[{"magFilter":9728,"minFilter":9728,"wrapS":33071,"wrapT":33071},{"magFilter":9728,"minFilter":9728,"wrapS":10497,"wrapT":10497}],"scene":0,"scenes":[{"name":"Layer 0","nodes":[3]}],"textures":[{"sampler":0,"source":0},{"sampler":1,"source":1}]}